<svg width="1920" height="1080" xmlns="http://www.w3.org/2000/svg">
  <defs>
    <linearGradient id="grad1" x1="0%" y1="0%" x2="0%" y2="100%">
      <stop offset="0%" style="stop-color:#000000;stop-opacity:1" />
      <stop offset="70%" style="stop-color:#1a1a2e;stop-opacity:1" />
      <stop offset="100%" style="stop-color:#322d4a;stop-opacity:1" />
    </linearGradient>
    <linearGradient id="candleGlow" x1="50%" y1="0%" x2="50%" y2="100%">
      <stop offset="0%" style="stop-color:#ffaa33;stop-opacity:0.4" />
      <stop offset="100%" style="stop-color:#ffaa33;stop-opacity:0" />
    </linearGradient>
    <pattern id="stars" x="0" y="0" width="200" height="200" patternUnits="userSpaceOnUse">
      <circle cx="10" cy="10" r="0.8" fill="white" opacity="0.3" />
      <circle cx="50" cy="60" r="0.6" fill="white" opacity="0.2" />
      <circle cx="120" cy="30" r="0.5" fill="white" opacity="0.25" />
      <circle cx="180" cy="80" r="0.7" fill="white" opacity="0.3" />
      <circle cx="90" cy="150" r="0.5" fill="white" opacity="0.2" />
      <circle cx="160" cy="170" r="0.6" fill="white" opacity="0.25" />
      <circle cx="30" cy="190" r="0.7" fill="white" opacity="0.25" />
    </pattern>
    <filter id="glow" x="-50%" y="-50%" width="200%" height="200%">
      <feGaussianBlur stdDeviation="5" result="blur" />
      <feComposite in="SourceGraphic" in2="blur" operator="over" />
    </filter>
  </defs>
  
  <!-- 背景 -->
  <rect width="100%" height="100%" fill="url(#grad1)" />
  <rect width="100%" height="100%" fill="url(#stars)" />
  
  <!-- 烛光效果 -->
  <g opacity="0.5">
    <ellipse cx="960" cy="400" rx="300" ry="400" fill="url(#candleGlow)" opacity="0.1" />
  </g>
  
  <!-- 底部装饰 -->
  <g opacity="0.3">
    <path d="M0,900 Q480,920 960,900 T1920,900 L1920,1080 L0,1080 Z" fill="#322d4a" />
  </g>
  <g opacity="0.1">
    <path d="M0,980 Q480,950 960,980 T1920,980 L1920,1080 L0,1080 Z" fill="#8c0f3c" />
  </g>
  
  <!-- 装饰线条 -->
  <line x1="480" y1="1000" x2="480" y2="1080" stroke="#8c0f3c" stroke-width="1" opacity="0.3" />
  <line x1="960" y1="980" x2="960" y2="1080" stroke="#8c0f3c" stroke-width="1" opacity="0.3" />
  <line x1="1440" y1="1000" x2="1440" y2="1080" stroke="#8c0f3c" stroke-width="1" opacity="0.3" />
</svg> 